<svg width="125" height="63" viewBox="0 0 125 63" fill="none" xmlns="http://www.w3.org/2000/svg">
<path fill-rule="evenodd" clip-rule="evenodd" d="M79.7002 20.2C81.0002 18.9 82.4002 17.8 84.1002 16.9C86.3002 15.8 88.4002 15.5 90.7002 15.5C95.1002 15.5 99.0002 16.8 103.2 17.8C111.1 19.5 117.2 16.8 120.7 10.7C116.2 15.2 111 16 104.6 14C103.2 13.5 101.7 13.1 100.3 12.6C96.9002 11.6 93.4002 11.2 89.9002 12.1C87.2002 12.8 84.9002 14.2 83.0002 16C81.8002 17.2 80.4002 18.9 79.7002 20.2Z" fill="#E4A025"/>
<path fill-rule="evenodd" clip-rule="evenodd" d="M89.2998 12.3999C92.3998 9.79993 94.9998 9.09993 97.8998 9.19993C101.5 9.29993 104.8 10.2999 108.2 11.0999C115.2 12.5999 120.1 9.69993 122.5 5.29993C119.7 8.59993 115.5 9.59993 111.5 8.79993C109.6 8.39993 107.8 7.69993 105.8 7.19993C104.5 6.79993 103.1 6.49993 101.4 6.39993C96.1998 5.89993 91.7998 8.39993 89.2998 12.3999Z" fill="#E4A025"/>
<path fill-rule="evenodd" clip-rule="evenodd" d="M97.8999 6.59998C100.3 4.59998 102.3 4.19998 104.6 4.19998C105.6 4.19998 106.5 4.29998 107.4 4.39998C109.3 4.69998 111 5.19998 112.7 5.49998C115.4 5.99998 118.1 5.79998 120.5 4.29998C122.1 3.29998 123.3 1.79998 124.3 0.0999756C122.2 2.69998 119.2 3.79998 116.7 3.69998C113.9 3.49998 111.1 1.89998 107.4 1.79998C103.2 1.39998 99.9999 3.39998 97.8999 6.59998Z" fill="#E4A025"/>
<path fill-rule="evenodd" clip-rule="evenodd" d="M30.7 38.7V27.2C30.7 25.9 30.7 25.9 29.7 25.9C28.6 25.9 28.6 26 27.8 26.9L17 38.7H30.7ZM36.6 20.3H30C26.2 20.3 25.8 20.2 23.4 22.9L0 47.8H3.3C9.2 47.8 8 48 11.5 44.3H30.7C30.7 47.6 30.6 47.9 34.3 47.8H42C42 40.3 42 32.8 42 25.2C42 21.3 41.4 20.3 36.6 20.3Z" fill="#006C99"/>
<path fill-rule="evenodd" clip-rule="evenodd" d="M52.7002 20.2999C61.7002 20.2999 70.6002 20.2999 79.6002 20.2999V22.4999C79.6002 26.0999 79.9002 25.9999 75.7002 25.9999C70.9002 25.9999 65.7002 25.9999 60.9002 25.9999C57.6002 25.9999 57.8002 25.6999 57.8002 28.4999C57.8002 31.5999 57.4002 31.1999 61.1002 31.1999C64.9002 31.1999 69.0002 31.1999 72.8002 31.1999C79.4002 31.1999 79.5002 32.3999 79.5002 36.8999V42.4999C79.5002 46.9999 79.1002 47.7999 73.6002 47.7999C64.5002 47.7999 55.3002 47.8999 46.1002 47.8999C46.1002 41.6999 45.6002 42.1999 51.4002 42.1999C55.8002 42.1999 60.4002 42.1999 64.8002 42.1999C68.4002 42.1999 68.0002 42.3999 68.0002 39.4999C68.0002 36.5999 68.2002 36.7999 64.4002 36.7999C60.6002 36.7999 56.4002 36.8999 52.7002 36.8999C47.2002 36.8999 46.2002 35.3999 46.2002 30.5999V25.9999C46.2002 21.5999 47.9002 20.2999 52.7002 20.2999Z" fill="#006C99"/>
<path fill-rule="evenodd" clip-rule="evenodd" d="M91.4001 20.2999C100 20.2999 108.7 20.2999 117.4 20.3999V22.3999C117.4 26.2999 117.8 26.0999 113 26.0999H100.1C94.9001 26.0999 95.4001 25.6999 95.4001 30.6999V38.4999C95.4001 42.7999 94.8001 42.2999 99.5001 42.2999H103.4C105.7 42.2999 105.6 42.3999 105.6 40.0999V38.7999C105.6 37.0999 105.7 36.8999 104.5 36.9999C103.6 36.9999 102.7 36.9999 101.8 36.9999C100.6 36.9999 100.7 36.5999 100.7 34.7999C100.7 34.5999 100.7 34.2999 100.7 33.9999V31.3999C104.9 31.3999 109.1 31.3999 113.3 31.3999C117.4 31.3999 117.2 32.3999 117.2 36.7999V43.3999C117.2 46.5999 117.3 47.8999 113.2 47.9999C106.5 47.9999 99.7001 47.9999 92.9001 47.9999C85.6001 47.9999 83.8001 48.2999 83.8001 40.1999V27.1999C83.7001 21.1999 85.9001 20.2999 91.4001 20.2999Z" fill="#006C99"/>
<path d="M39.4001 59.9V62H33.6001H30.8001H30.6001V53.2H33.3001V59.9H39.4001Z" fill="#006C99"/>
<path d="M40.1001 55.5C40.1001 55.1 40.1001 54.7999 40.2001 54.5999C40.3001 54.3999 40.4001 54.1 40.7001 53.9C40.9001 53.7 41.1001 53.6 41.4001 53.5C41.6001 53.4 41.9001 53.2999 42.3001 53.2999C42.7001 53.2999 43.1001 53.2 43.6001 53.2C44.1001 53.2 44.9001 53.2 46.0001 53.2C47.1001 53.2 47.8001 53.2 48.4001 53.2C48.9001 53.2 49.3001 53.1999 49.7001 53.2999C50.1001 53.2999 50.4001 53.4 50.6001 53.5C50.8001 53.6 51.0001 53.8 51.2001 53.9C51.4001 54.1 51.6001 54.2999 51.7001 54.5999C51.8001 54.7999 51.8001 55.1 51.8001 55.5V56.7999C51.8001 57.9999 51.8001 58.9999 51.8001 59.7999C51.8001 60.1999 51.8001 60.5 51.7001 60.7C51.6001 60.9 51.5001 61.2 51.2001 61.4C51.0001 61.6 50.8001 61.6999 50.5001 61.7999C50.2001 61.9 49.9001 62 49.5001 62C49.1001 62 48.7001 62.0999 48.2001 62.0999C47.7001 62.0999 46.9001 62.0999 45.9001 62.0999C44.9001 62.0999 44.1001 62.0999 43.6001 62.0999C43.1001 62.0999 42.6001 62.1 42.3001 62C41.9001 62 41.6001 61.9 41.4001 61.7999C41.2001 61.6999 41.0001 61.6 40.7001 61.4C40.5001 61.2 40.3001 61 40.2001 60.7C40.1001 60.5 40.1001 60.1999 40.1001 59.7999V55.5ZM42.6001 59.4C42.6001 59.6 42.7001 59.6999 42.8001 59.7999C42.9001 59.8999 43.1001 59.9 43.4001 59.9C43.8001 59.9 45.5001 59.9 48.4001 59.9C48.7001 59.9 48.9001 59.8999 49.0001 59.7999C49.1001 59.6999 49.2001 59.6 49.2001 59.4V58.4V55.7999C49.2001 55.5999 49.1001 55.4 49.0001 55.4C48.9001 55.3 48.7001 55.2999 48.4001 55.2999C48.0001 55.2999 46.3001 55.2999 43.4001 55.2999C43.1001 55.2999 42.9001 55.3 42.8001 55.4C42.7001 55.5 42.6001 55.5999 42.6001 55.7999V59.4Z" fill="#006C99"/>
<path d="M63.8003 55.4C58.9003 55.4 56.3003 55.4 55.9003 55.4C55.6003 55.4 55.4003 55.4 55.3003 55.5C55.2003 55.6 55.1003 55.7 55.1003 55.8V59.3C55.1003 59.5 55.2003 59.6 55.3003 59.7C55.4003 59.8 55.6003 59.8 55.9003 59.8C56.3003 59.8 57.9003 59.8 60.7003 59.8C61.0003 59.8 61.2003 59.8 61.3003 59.7C61.4003 59.6 61.5003 59.5 61.5003 59.3V58.3H58.2003V56.6H63.9003C63.9003 57.8 63.9003 58.8 63.9003 59.6C63.9003 60 63.9003 60.3 63.8003 60.5C63.7003 60.7 63.6003 61 63.4003 61.2C63.2003 61.4 63.0003 61.5 62.8003 61.6C62.6003 61.7 62.3003 61.8 61.9003 61.8C61.5003 61.8 61.1003 61.9 60.6003 61.9C60.1003 61.9 59.3003 61.9 58.4003 61.9C57.4003 61.9 56.7003 61.9 56.2003 61.9C55.7003 61.9 55.3003 61.9 54.9003 61.8C54.5003 61.8 54.3003 61.7 54.0003 61.6C53.8003 61.5 53.6003 61.4 53.4003 61.2C53.2003 61 53.0003 60.8 52.9003 60.5C52.8003 60.2 52.8003 59.9 52.8003 59.6C52.8003 58.8 52.8003 57.4 52.8003 55.5C52.8003 54.7 53.0003 54.1 53.5003 53.7C54.0003 53.3 54.7003 53.1 55.7003 53.1C57.2003 53.1 59.9003 53.1 63.9003 53.1V55.4H63.8003Z" fill="#006C99"/>
<path d="M67.5003 53.2V62H64.8003V53.2H67.5003Z" fill="#006C99"/>
<path d="M79.4001 59.2999C79.4001 60.2999 79.2001 60.8999 78.8001 61.3999C78.4001 61.7999 77.7001 61.9999 76.8001 61.9999C75.7001 61.9999 73.1001 61.9999 68.8001 61.9999V60.0999C73.2001 60.0999 75.4001 60.0999 75.6001 60.0999C75.8001 60.0999 75.9001 60.0999 76.0001 60.0999C76.1001 60.0999 76.3001 60.0999 76.4001 59.9999C76.5001 59.9999 76.6001 59.8999 76.7001 59.7999C76.8001 59.6999 76.8001 59.5999 76.8001 59.3999C76.8001 59.1999 76.8001 59.0999 76.7001 58.9999C76.6001 58.8999 76.5001 58.7999 76.3001 58.7999C76.1001 58.7999 76.0001 58.6999 75.8001 58.6999C75.6001 58.6999 75.4001 58.6999 75.2001 58.6999C75.1001 58.6999 74.7001 58.6999 74.0001 58.6999C73.0001 58.6999 72.3001 58.5999 72.1001 58.5999C71.8001 58.5999 71.6001 58.5999 71.4001 58.5999C71.2001 58.5999 71.0001 58.5999 70.8001 58.5999C70.0001 58.5999 69.4001 58.2999 69.0001 57.7999C68.7001 57.3999 68.6001 56.8999 68.6001 56.0999C68.6001 55.1999 68.8001 54.4999 69.1001 53.9999C69.5001 53.4999 70.0001 53.2999 70.8001 53.2999C71.9001 53.2999 74.6001 53.2999 79.1001 53.2999V55.1999C74.7001 55.1999 72.5001 55.1999 72.3001 55.1999C72.2001 55.1999 72.0001 55.1999 71.9001 55.1999C71.8001 55.1999 71.7001 55.1999 71.6001 55.2999C71.5001 55.2999 71.4001 55.3999 71.3001 55.4999C71.2001 55.5999 71.2001 55.6999 71.2001 55.8999C71.2001 56.1999 71.3001 56.3999 71.5001 56.4999C71.7001 56.5999 72.0001 56.5999 72.3001 56.5999H72.5001C72.6001 56.5999 72.7001 56.5999 72.7001 56.5999C72.8001 56.5999 73.2001 56.5999 73.9001 56.5999C74.8001 56.5999 75.4001 56.6999 75.8001 56.6999C76.1001 56.6999 76.4001 56.6999 76.7001 56.6999C76.9001 56.6999 77.1001 56.6999 77.3001 56.6999C78.1001 56.6999 78.7001 56.9999 79.0001 57.5999C79.3001 58.0999 79.4001 58.6999 79.4001 59.2999Z" fill="#006C99"/>
<path d="M86.8001 62H84.0001V55.2H80.1001V53.2H90.5001V55.2H86.8001V62Z" fill="#006C99"/>
<path d="M94.0999 53.2V62H91.3999V53.2H94.0999Z" fill="#006C99"/>
<path d="M95.1997 56.9C95.1997 56.1 95.1997 55.6999 95.1997 55.5999C95.1997 54.7999 95.3997 54.1999 95.8997 53.7999C96.3997 53.3999 97.0997 53.2 98.0997 53.2C99.5997 53.2 102.1 53.2 105.7 53.2V55.4C101.3 55.4 98.7997 55.4 98.3997 55.4C98.0997 55.4 97.8997 55.4 97.7997 55.5C97.6997 55.6 97.5997 55.6999 97.5997 55.7999V56.5V58.5999V59.2999C97.5997 59.4999 97.6997 59.6 97.7997 59.7C97.8997 59.8 98.0997 59.7999 98.3997 59.7999C98.7997 59.7999 101.2 59.7999 105.7 59.7999V62C102.2 62 99.5997 62 98.0997 62C97.0997 62 96.3997 61.8 95.8997 61.4C95.3997 61 95.1997 60.3999 95.1997 59.5999C95.1997 59.5999 95.1997 59.0999 95.1997 58.2999V56.9Z" fill="#006C99"/>
<path d="M117.4 59.2999C117.4 60.2999 117.2 60.8999 116.8 61.3999C116.4 61.7999 115.7 61.9999 114.8 61.9999C113.7 61.9999 111.1 61.9999 106.8 61.9999V60.0999C111.2 60.0999 113.4 60.0999 113.6 60.0999C113.8 60.0999 113.9 60.0999 114 60.0999C114.1 60.0999 114.3 60.0999 114.4 59.9999C114.5 59.9999 114.6 59.8999 114.7 59.7999C114.8 59.6999 114.8 59.5999 114.8 59.3999C114.8 59.1999 114.8 59.0999 114.7 58.9999C114.6 58.8999 114.5 58.7999 114.3 58.7999C114.1 58.7999 114 58.6999 113.8 58.6999C113.6 58.6999 113.4 58.6999 113.2 58.6999C113.1 58.6999 112.7 58.6999 112 58.6999C111 58.6999 110.3 58.5999 110.1 58.5999C109.8 58.5999 109.6 58.5999 109.4 58.5999C109.2 58.5999 109 58.5999 108.8 58.5999C108 58.5999 107.4 58.2999 107 57.7999C106.7 57.3999 106.6 56.8999 106.6 56.0999C106.6 55.1999 106.8 54.4999 107.1 53.9999C107.5 53.4999 108 53.2999 108.8 53.2999C109.9 53.2999 112.6 53.2999 117.1 53.2999V55.1999C112.7 55.1999 110.5 55.1999 110.3 55.1999C110.2 55.1999 110 55.1999 109.9 55.1999C109.8 55.1999 109.7 55.1999 109.6 55.2999C109.5 55.2999 109.4 55.3999 109.3 55.4999C109.2 55.5999 109.2 55.6999 109.2 55.8999C109.2 56.1999 109.3 56.3999 109.5 56.4999C109.7 56.5999 110 56.5999 110.3 56.5999H110.5C110.6 56.5999 110.7 56.5999 110.7 56.5999C110.8 56.5999 111.2 56.5999 111.9 56.5999C112.8 56.5999 113.4 56.6999 113.8 56.6999C114.1 56.6999 114.4 56.6999 114.7 56.6999C114.9 56.6999 115.1 56.6999 115.3 56.6999C116.1 56.6999 116.7 56.9999 117 57.5999C117.3 58.0999 117.4 58.6999 117.4 59.2999Z" fill="#006C99"/>
</svg>
